<svg width="204" height="86" viewBox="0 0 204 86" fill="none" xmlns="http://www.w3.org/2000/svg">
<g clip-path="url(#clip0_4_33)">
<path fill-rule="evenodd" clip-rule="evenodd" d="M238.322 52.5991C235.907 52.3029 230.343 51.3739 225.957 50.5347C221.571 49.6954 214.81 48.7608 210.931 48.4579C193.724 47.1137 188.193 46.3745 178.887 44.1749C173.713 42.952 169.439 41.7781 169.389 41.566C169.339 41.3539 170.45 40.9996 171.857 40.7785C174.803 40.3157 188.504 39.5069 194.275 39.455C200.315 39.4007 212.589 39.9479 212.974 40.2887C213.164 40.4563 213.486 40.5037 213.691 40.3941C213.896 40.2845 214.766 40.1947 215.625 40.1945C216.806 40.1941 217.063 40.3299 216.679 40.7525C216.318 41.15 216.437 41.1648 217.091 40.8041C217.607 40.5201 218.056 40.4895 218.113 40.7345C218.17 40.975 218.557 41.0754 218.974 40.9575C219.39 40.8395 221.946 40.8916 224.654 41.0729C231.489 41.5308 236.833 41.4673 236.501 40.9322C236.354 40.6941 232.904 40.4216 228.836 40.3267C224.767 40.2318 219.297 39.8808 216.68 39.5466C212.502 39.013 205.396 38.6633 195.435 38.5009C193.779 38.4739 192.29 38.3236 192.125 38.167C191.961 38.0103 190.482 37.8536 188.838 37.8188C181.331 37.6599 178.429 37.2286 176.62 36.0031C175.02 34.9191 174.86 34.6614 175.022 33.434C175.231 31.8576 175.793 31.5133 176.09 32.7789C176.203 33.2574 176.492 33.6025 176.732 33.5459C176.973 33.4893 177.262 33.8345 177.374 34.3129C177.487 34.7914 177.736 35.1458 177.929 35.1005C178.121 35.0552 178.117 34.3332 177.92 33.4959C177.723 32.6587 177.393 32.0134 177.187 32.062C176.98 32.1106 176.887 31.9261 176.979 31.6519C177.071 31.3777 177.712 31.0204 178.403 30.8578C179.094 30.6953 185.126 28.3571 191.806 25.6617C198.487 22.9665 207.792 19.4203 212.483 17.7817C217.174 16.1429 222.621 14.1386 224.588 13.3275L228.164 11.853L224.498 12.9424C222.481 13.5417 219.301 14.5899 217.431 15.2716C215.56 15.9533 210.778 17.6957 206.804 19.1433C202.829 20.5909 197.305 22.7104 194.528 23.8532C187.158 26.886 173.805 31.9406 172.166 32.3181C171.388 32.4974 170.928 32.4504 171.145 32.214C171.362 31.9776 171.584 31.425 171.638 30.9861C171.773 29.8997 173.879 28.7998 180.159 26.5339C183.084 25.4787 186.744 23.8234 188.293 22.8555C189.842 21.8875 192.501 20.3885 194.202 19.5242C195.902 18.6601 196.94 17.9639 196.507 17.9772C195.737 18.0008 194.983 18.3734 187.087 22.6332C184.766 23.8854 181.54 25.2102 179.091 25.9174L174.986 27.1025L177.567 25.3256C178.987 24.3483 181.676 22.9772 183.543 22.2788C186.37 21.2208 190.649 19.3204 198.063 15.83C198.691 15.534 199.165 15.1208 199.116 14.9115C198.99 14.3772 198.627 14.5043 194.314 16.5917C188.067 19.6151 183.946 21.2904 181.115 21.9571C179.564 22.3223 177.938 23.0079 177.228 23.5964C176.439 24.2496 175.512 24.6157 174.612 24.6301C173.761 24.6438 173.017 24.9162 172.703 25.3292C172.277 25.8909 172.147 25.8258 171.94 24.9472C171.684 23.858 172.26 22.998 175.3 19.9263C176.805 18.4061 176.913 18.3594 176.843 19.2591C176.801 19.7912 176.956 20.1821 177.187 20.1277C177.674 20.0131 177.941 18.6448 177.551 18.2567C177.406 18.1117 178.588 16.7352 180.178 15.1977C182.356 13.0919 183.379 12.3887 184.324 12.3478C185.602 12.2927 185.952 11.3768 184.688 11.397C184.315 11.4029 187.001 8.50597 190.656 4.95941C194.311 1.41285 197.323 -1.72219 197.35 -2.00701C197.407 -2.62437 195.383 -0.749351 182.27 11.9641C176.793 17.2745 172.11 21.5578 171.864 21.4827C171.618 21.4076 172.093 20.7796 172.92 20.0872C175.477 17.9459 184.472 9.19989 186.779 6.61064C187.984 5.25862 190.474 2.82649 192.313 1.20588C195.686 -1.76681 197.094 -3.52429 194.666 -1.73021C193.252 -0.685668 190.23 2.16133 181.798 10.3899C178.85 13.2666 175.749 16.2244 174.908 16.9628C174.066 17.7012 172.829 18.8612 172.158 19.5405C171.116 20.5966 170.813 20.715 170.072 20.3579C169.32 19.9956 169.265 20.0289 169.653 20.6081C170.492 21.8574 169.15 21.8856 167.323 20.6572C165.481 19.4192 165.564 19.791 167.522 21.5502C168.47 22.4026 168.521 22.5608 167.971 22.9341C167.574 23.2027 166.83 22.9718 165.92 22.2976C164.127 20.9694 163.74 21.3874 165.411 22.848C166.64 23.9226 166.646 23.9426 165.901 24.5965C165.454 24.9881 165.007 25.1189 164.805 24.9171C164.617 24.7299 164.682 24.4423 164.949 24.2782C165.326 24.046 165.249 23.7243 164.602 22.8278C163.604 21.4467 163.929 19.629 165.973 15.1564C166.68 13.6084 167.155 12.2775 167.027 12.1989C166.714 12.0062 162.433 20.1434 162.023 21.7108C161.789 22.6041 161.532 22.8536 161.112 22.5954C160.349 22.1254 160.661 20.5408 162.014 18.0161C163.41 15.4137 162.661 15.767 160.797 18.5903L159.272 20.8997L160.121 18.8641C161.406 15.7824 162.406 13.8516 162.511 14.2502C162.563 14.4467 162.864 14.0385 163.181 13.3429C163.634 12.3456 164.101 12.0211 165.392 11.8074C167.266 11.4969 167.172 10.6931 165.207 10.2153C164.556 10.0568 164.163 9.86514 164.336 9.78919C165.421 9.312 165.826 9.28592 166.836 9.62799C167.848 9.97024 167.946 9.93003 167.784 9.23993C167.62 8.54375 167.691 8.51635 168.524 8.95406C171.201 10.3597 171.425 9.76065 168.775 8.28253L165.66 6.54481L166.314 5.24345C166.674 4.52769 167.032 4.18527 167.11 4.48233C167.189 4.77953 167.471 4.97134 167.737 4.90868C168.003 4.84606 168.053 4.54802 167.846 4.24645C167.578 3.85401 167.756 3.69137 168.47 3.67468C169.425 3.65242 169.427 3.63123 168.505 3.18601C167.581 2.73955 167.583 2.62987 168.549 0.502256C169.103 -0.717763 170.393 -3.15216 171.416 -4.90747C172.439 -6.66281 173.586 -9.30801 173.965 -10.7857C174.344 -12.2634 175.027 -14.283 175.482 -15.2737C175.938 -16.2644 176.391 -17.6926 176.489 -18.4477C176.656 -19.7268 176.625 -19.7663 176.032 -19.0286C175.244 -18.0484 174.621 -16.6379 174.132 -14.7266C173.517 -12.3239 167.248 1.09958 166.521 1.5688C166.152 1.80744 165.883 2.18055 165.924 2.39792C165.964 2.61543 165.803 3.52089 165.566 4.41018C165.218 5.71205 164.934 6.01735 164.108 5.97822C163.544 5.95153 162.525 5.54942 161.845 5.08462C161.164 4.62001 160.635 4.35533 160.668 4.49668C160.701 4.63804 160.231 4.62682 159.624 4.4717C158.54 4.19517 158.538 4.20328 159.521 4.89178C160.494 5.57458 160.5 5.69188 159.741 9.15235C158.748 13.6787 156.252 19.6471 155.78 18.623C155.596 18.2246 155.255 17.9432 155.022 17.998C154.789 18.0529 154.913 17.0848 155.298 15.8467C156.115 13.2207 155.728 12.4345 154.871 14.9781C154.204 16.9577 152.96 17.7632 150.897 17.5506C148.445 17.298 148.538 17.8762 147.163 -5.85732C146.063 -24.8423 145.99 -25.7036 145.544 -24.9842C145.36 -24.6886 145.484 -20.0702 145.818 -14.7212C146.972 3.73121 147.81 18.5489 147.736 19.1582C147.679 19.615 147.415 19.7047 146.689 19.5131C146.154 19.372 145.475 19.368 145.18 19.504C144.79 19.6835 144.417 18.9319 143.821 16.766C143.369 15.124 142.894 13.7156 142.765 13.6363C142.636 13.5569 142.502 14.1927 142.468 15.0489C142.413 16.4155 142.321 16.2495 141.712 13.6892C141.214 11.5934 140.774 10.622 140.148 10.2374C139.301 9.71608 138.398 6.65775 135.401 -5.8444C135.086 -7.15874 134.674 -8.3024 134.486 -8.38591C134.298 -8.46938 132.137 -14.346 129.685 -21.4453C127.233 -28.5445 125.104 -34.4283 124.954 -34.5205C124.442 -34.8359 125.392 -31.7097 129.035 -21.1004C131.039 -15.2607 132.851 -9.75969 133.06 -8.87585C133.458 -7.19081 131.464 3.32747 130.711 3.51547C130.094 3.66923 128.462 6.88929 128.82 7.24579C129.312 7.7365 129.41 7.61419 130.049 5.71816C130.377 4.74408 130.756 4.0153 130.892 4.09843C131.229 4.30608 130.295 7.94324 129.166 10.8202L128.234 13.1944L126.147 9.71373C122.388 3.44246 121.126 1.64496 120.575 1.77456C120.102 1.8858 116.658 -2.09536 116.445 -2.99901C116.402 -3.18226 114.917 -5.18232 113.145 -7.44355C111.372 -9.70489 108.956 -12.8769 107.775 -14.4924C104.398 -19.1121 100.842 -23.3793 100.433 -23.3035C100.227 -23.2655 100.881 -22.3433 101.886 -21.2544C102.891 -20.1654 104.774 -17.6651 106.071 -15.6981C107.368 -13.7312 109.164 -11.1586 110.061 -9.98119C113.04 -6.07251 114.467 -3.89186 113.77 -4.31278C112.89 -4.84351 112.326 -4.7108 112.719 -4.06559C113.496 -2.78856 118.14 4.13562 119.092 5.43657C120.368 7.18106 120.531 7.66725 119.659 7.13087C118.91 6.66998 118.274 6.73434 118.397 7.25844C118.444 7.45721 119.036 7.76596 119.712 7.94461C120.389 8.12327 121.029 8.63659 121.134 9.08545C121.24 9.5343 121.928 10.2717 122.663 10.7241C124.151 11.6394 125.468 12.9855 125.238 13.3551C125.155 13.4876 124.265 13.008 123.26 12.2893C119.103 9.31676 109.844 3.39659 109.476 3.47567C109.036 3.57034 112.737 6.08865 120.791 11.1745C126.014 14.473 127.725 16.1903 127.29 17.6967C127.175 18.0927 127.329 18.6586 127.633 18.9545C128.01 19.3231 128.146 19.3208 128.063 18.9471C127.996 18.6473 128.092 18.3664 128.276 18.3231C128.733 18.2157 131.383 22.2206 131.486 23.173C131.534 23.6181 131.775 23.8018 132.06 23.6112C132.33 23.4307 133.046 23.8146 133.651 24.4643C134.256 25.1139 134.842 25.4991 134.953 25.3204C135.065 25.1417 134.719 24.5827 134.185 24.0781C133.651 23.5736 133.183 23.0058 133.145 22.8166C133.107 22.6273 134.002 23.3701 135.133 24.4671C136.265 25.5643 137.125 26.6562 137.045 26.8937C136.83 27.5308 135.998 27.1308 136.093 26.4365C136.141 26.0915 135.797 25.9015 135.275 25.9838C134.603 26.0897 134.436 26.3897 134.617 27.1604C134.983 28.7146 134.394 28.9401 132.404 28.0085C130.933 27.3201 130.66 27.0122 130.902 26.3156C131.324 25.0998 130.339 24.6041 129.486 25.6034C128.87 26.3253 128.995 26.4773 131.359 27.8859C132.752 28.716 134.072 29.3528 134.292 29.3011C135.28 29.0686 134.247 30.1559 132.926 30.7388C131.219 31.4917 131.182 31.9351 132.772 32.562C134.577 33.273 133.264 33.3282 131.098 32.6323L129.144 32.0045L128.495 28.7756C127.726 24.9556 127.293 25.0661 127.751 28.9654L128.073 31.7144L124.55 29.4907L121.027 27.2668L123.155 26.9923C126.037 26.6203 125.725 26.0071 122.803 26.2999C120.723 26.5083 120.172 26.3312 117.59 24.6269C116.002 23.5784 114.758 22.5578 114.825 22.3585C114.892 22.1593 114.745 21.9746 114.498 21.948C113.136 21.8023 89.2256 7.25092 82.6298 2.554C80.6978 1.1783 78.9392 0.0944335 78.7219 0.145566C78.1296 0.284898 93.3346 10.5747 107.583 19.6774C109.797 21.092 109.932 20.9775 106.089 20.9512C105.269 20.9457 104.997 21.0751 105.266 21.3435C105.487 21.5637 106.796 21.713 108.174 21.6752C109.552 21.6374 110.835 21.7603 111.023 21.9484C111.212 22.1367 111.092 22.2716 110.756 22.2484C108.797 22.1131 107.572 22.2796 107.927 22.6331C108.14 22.8455 108.748 22.9316 109.279 22.8245C110.215 22.6356 110.221 22.6485 109.466 23.2431C108.828 23.7455 108.934 23.7712 110.052 23.3855C110.803 23.1265 111.355 23.0982 111.279 23.3228C111.203 23.5473 111.337 23.6851 111.576 23.6288C111.815 23.5726 112.616 23.6136 113.356 23.7197C114.594 23.8979 114.637 23.9548 113.902 24.4443C113.208 24.9065 113.294 24.9729 114.567 24.9552C115.372 24.9441 116.364 25.1857 116.77 25.492C117.434 25.9916 117.29 26.0755 115.366 26.3068C113.511 26.5299 113.345 26.6181 114.135 26.9605C114.638 27.1781 116.064 27.3793 117.306 27.4073C118.931 27.4443 120.348 27.9203 122.368 29.108C129.352 33.2138 131.525 34.4086 132.193 34.5113C132.805 34.6053 132.814 34.7197 132.259 35.2835C131.9 35.6476 131.676 36.2408 131.761 36.6018C131.846 36.9629 131.676 37.1786 131.382 37.0813C131.088 36.9839 130.946 37.16 131.067 37.4725C131.635 38.9456 131.464 39.2213 129.962 39.2528C128.072 39.2923 127.668 39.1636 127.864 38.5835C127.958 38.3022 128.414 38.2219 129.015 38.3806C130.055 38.6549 130.501 38.1152 131.172 35.7725C131.367 35.0944 131.128 35.2763 130.406 36.3568C129.437 37.8071 129.292 37.8846 128.478 37.3841C127.995 37.0863 127.809 36.7931 128.067 36.7325C129.054 36.5003 128.247 35.6684 126.862 35.4899C125.683 35.3381 125.414 35.1082 125.428 34.2607C125.455 32.6175 124.595 33.2462 124.284 35.098C123.991 36.8377 122.784 37.6535 122.46 36.3303C122.33 35.7982 122.21 35.7552 122.059 36.1864C121.786 36.9637 116.378 35.9502 116.174 35.0835C116.003 34.3567 114.831 34.6096 114.708 35.3999C114.634 35.8764 114.583 35.8884 114.453 35.4599C114.264 34.8364 113.368 34.9243 113.515 35.5519C113.57 35.7839 115.25 36.3046 117.249 36.7092C119.248 37.1138 120.91 37.5581 120.943 37.6964C121.006 37.9663 120.333 37.8659 113.332 36.5598C107.131 35.4034 106.813 35.3054 107.206 34.6738C107.584 34.0666 106.907 32.5304 106.322 32.668C106.11 32.718 105.826 32.2934 105.692 31.7244C105.518 30.9819 105.037 30.6234 103.991 30.4549C103.189 30.3257 102.192 29.9179 101.777 29.5489C100.512 28.4255 91.0084 26.1981 91.2142 27.0732C91.2703 27.3116 91.8005 27.5795 92.3927 27.6686C94.2136 27.9424 92.6304 28.1303 88.6048 28.1182C86.4932 28.1119 84.081 28.2872 83.2446 28.508L81.7237 28.9096L83.1167 28.9454C84.9341 28.9922 92.7958 28.868 94.8417 28.7601C96.8049 28.6567 98.1209 28.9669 98.262 29.5665C98.4109 30.1994 101.017 31.733 102.949 32.325C103.838 32.5974 104.603 32.9783 104.648 33.1714C104.694 33.3645 104.201 33.3313 103.554 33.0977C102.511 32.7211 102.395 32.7472 102.531 33.3277C102.616 33.6879 102.882 33.9363 103.123 33.8797C103.363 33.8231 103.481 33.9036 103.385 34.0585C103.072 34.5604 101.643 34.1467 101.825 33.607C101.929 33.2971 101.821 33.2629 101.559 33.523C101.316 33.7647 100.178 33.7548 99.0316 33.5011C97.8848 33.2475 96.3079 33.1143 95.5273 33.2051C94.7465 33.2959 93.4759 33.1379 92.7035 32.8544L91.2992 32.3386L92.4011 31.6276C93.6838 30.7998 93.7421 29.9071 92.4637 30.6679C91.9246 30.9887 91.4161 30.9929 91.101 30.679C90.6921 30.2713 90.5186 30.3066 90.1687 30.8683C89.8189 31.43 89.8782 31.6063 90.4876 31.8152C90.9376 31.9694 91.0292 32.1234 90.7171 32.2011C90.4316 32.2721 90.0488 32.1817 89.8665 32C89.6844 31.8184 88.9955 31.6625 88.3356 31.6536C87.2224 31.6384 80.816 30.5055 74.7217 29.246C73.2962 28.9513 72.0445 28.8472 71.9405 29.0143C71.8363 29.1816 73.3642 29.6353 75.3358 30.0225C77.3076 30.4098 80.9003 31.1154 83.3198 31.5906C85.7394 32.0656 87.8765 32.4174 88.0689 32.3721C88.2613 32.3268 89.8494 32.7794 91.5978 33.3779C93.3464 33.9764 95.2859 34.3463 95.9079 34.2C98.1002 33.6843 104.269 35.485 104.561 36.7258C104.614 36.9501 105.003 37.0566 105.425 36.9622C107.01 36.608 108.597 36.6531 110.457 37.1049C111.512 37.3612 114.197 37.8098 116.423 38.1019C121.247 38.7346 126.499 39.7358 126.57 40.0361C126.598 40.1544 124.888 39.9513 122.771 39.5849C120.655 39.2184 118.966 39.1043 119.02 39.3313C119.073 39.5582 119.819 39.8623 120.679 40.0072C121.538 40.1519 123.287 40.4923 124.565 40.7636C125.844 41.0351 128.418 41.3823 130.285 41.5354L133.68 41.8139L130.575 42.3479C127.608 42.8583 127.573 42.8765 129.782 42.7606C131.053 42.6939 132.62 42.7342 133.264 42.8502C134.235 43.0253 134.072 43.107 132.307 43.3295C123.366 44.4565 119.304 45.1392 116.534 45.9803C113.647 46.8567 112.823 47.3731 108.163 51.2289C103.563 55.034 102.515 55.6957 98.6614 57.2301C96.2793 58.1785 93.5806 59.2999 92.6647 59.7222L90.9992 60.4898L92.6382 60.1595C93.5397 59.9777 96.2454 59.048 98.6508 58.0935C102.971 56.3791 105.412 56.0361 105.664 57.1079C105.718 57.3368 106.185 57.5559 106.702 57.5945C107.219 57.6332 107.687 57.859 107.743 58.0961C107.799 58.3333 107.665 58.468 107.445 58.3951C107.225 58.3222 106.802 58.5097 106.505 58.8117C106.099 59.2232 106.265 59.2916 107.168 59.0844C107.898 58.9169 108.428 59.0451 108.513 59.4098C108.69 60.1626 107.268 60.9559 106.542 60.5094C106.245 60.3267 105.489 60.0551 104.861 59.9057C104.061 59.7154 103.693 59.3233 103.628 58.5924C103.57 57.9326 103.388 57.698 103.131 57.9524C102.909 58.1735 102.793 58.6363 102.874 58.981C102.974 59.4061 102.534 59.7225 101.506 59.9643C100.446 60.2137 99.6345 60.8184 98.8037 61.9771C98.1509 62.8881 97.4271 63.678 97.1954 63.7325C96.5817 63.8769 95.6767 65.6594 95.8478 66.3868C95.9475 66.8104 94.8362 67.5986 92.387 68.8413C90.4028 69.8481 85.9239 72.2171 82.4338 74.1058C73.9696 78.6863 73.5076 78.8967 68.0531 80.6581C65.4581 81.4959 60.3562 83.2034 56.7157 84.4524C53.0751 85.7013 49.2389 86.9819 48.1907 87.2981C47.1183 87.6217 46.2619 88.135 46.2321 88.472C46.1258 89.6701 66.6123 83.7455 69.6516 81.6991C70.133 81.375 71.663 80.6988 73.0512 80.1966C76.3256 79.0121 82.1416 76.2385 84.4356 74.7677C87.2699 72.9503 95.0388 69.4002 98.8122 68.198C100.701 67.5962 103.11 66.8003 104.165 66.4294C106.021 65.7771 106.053 65.7845 105.142 66.6576C103.867 67.88 104.375 67.7174 106.928 66.0865C111.794 62.9776 114.442 61.5215 116.465 60.8408C117.641 60.4452 119.242 59.7538 120.023 59.3043C121.802 58.2805 122.642 58.0725 122.428 58.7093C122.337 58.9803 122.511 59.033 122.816 58.8265C123.121 58.62 123.693 58.6941 124.089 58.9912C124.88 59.5859 126.069 59.486 125.916 58.8378C125.863 58.6122 125.334 58.235 124.74 57.9996C123.694 57.5849 123.716 57.5419 125.451 56.608C126.436 56.0779 127.625 55.5061 128.093 55.3371C128.56 55.1683 129.353 54.7844 129.853 54.484C130.602 54.0344 130.894 54.1317 131.507 55.0355C132.152 55.9857 132.141 56.2667 131.423 57.1302C129.205 59.8005 120.023 68.4604 119.206 68.6525C118.856 68.735 118.611 68.984 118.664 69.206C118.758 69.6065 114.983 73.5241 113.104 74.9757C112.564 75.3924 110.801 77.4277 109.186 79.4986C106.744 82.6307 106.119 83.199 105.471 82.8786C104.405 82.3519 104.093 83.0182 105.06 83.7553C105.764 84.2916 105.747 84.325 104.89 84.0862C103.649 83.7404 102.636 85.0835 103.594 85.8032C104.061 86.1546 103.686 86.9842 101.97 89.3939C99.6894 92.5962 96.2491 99.0165 93.6267 104.965C92.8195 106.795 89.8344 111.99 86.9933 116.509C84.152 121.027 82.0205 124.678 82.2564 124.623C82.8988 124.472 89.1068 115.124 92.3725 109.391C93.95 106.621 97.5986 100.351 100.481 95.4554C105.377 87.1393 105.799 86.5657 106.916 86.7122C108.505 86.9207 108.8 86.8209 108.018 86.3399C106.969 85.6941 107.127 85.2558 108.352 85.4166C108.978 85.4988 109.891 85.3547 110.381 85.0965C111.263 84.6309 111.259 84.6191 109.804 83.6803L108.337 82.7336L109.533 82.1557C110.19 81.8378 111.025 81.4194 111.387 81.2258C111.75 81.0324 113.325 81.2018 114.889 81.6027C117.844 82.3603 119.088 82.2049 116.608 81.3879C115.828 81.1307 114.532 80.4499 113.729 79.8748L112.268 78.8291L113.601 76.7819C114.851 74.8621 119.029 70.3787 119.596 70.3496C119.737 70.3424 120.156 69.8488 120.528 69.2528C121.266 68.0671 125.633 64.3865 126.56 64.1685C126.878 64.0936 127.101 63.8729 127.055 63.6781C126.94 63.1879 129.524 61.176 130.592 60.9249C131.073 60.8118 132.343 59.9835 133.416 59.0843L135.365 57.4493L135.569 59.5785C135.804 62.0342 135.869 61.7287 134.186 66.1585C133.475 68.0283 133.015 69.6323 133.163 69.7232C133.598 69.9909 136.284 63.1623 136.341 61.6425C136.37 60.8757 136.404 59.3683 136.417 58.2923C136.438 56.4563 137.111 55.4159 137.421 56.7375C137.499 57.0671 137.912 57.5096 138.34 57.721C138.768 57.9323 139.046 58.3182 138.958 58.5786C138.87 58.839 139.209 59.3339 139.711 59.6782C140.574 60.2702 140.493 60.5611 138.231 65.0178C135.142 71.1032 132.366 75.4157 131.385 75.6518C130.952 75.7562 130.711 76.1189 130.841 76.4724C130.97 76.8209 130.292 78.013 129.336 79.1216C127.079 81.737 118.125 95.5044 118.379 95.9667C118.487 96.1617 118.088 96.7366 117.493 97.2442C116.897 97.7519 116.216 98.5878 115.979 99.102C115.598 99.9289 115.639 99.9143 116.332 98.9755C116.763 98.3919 117.231 97.985 117.372 98.0716C117.512 98.1582 116.832 99.0227 115.859 99.9929C114.887 100.963 113.395 102.781 112.544 104.032C110.893 106.461 104.131 114.756 103.432 115.211C103.202 115.36 103.188 115.599 103.402 115.742C103.779 115.993 104.343 115.368 109.855 108.583C111.3 106.804 113.024 104.808 113.685 104.147C114.347 103.487 116.073 101.414 117.521 99.542C118.969 97.6695 120.894 95.3109 121.798 94.3006C122.703 93.2904 124.037 91.6793 124.763 90.7206C125.49 89.7621 126.124 89.1489 126.174 89.358C126.272 89.7758 125.445 92.064 125.027 92.5301C124.882 92.691 124.015 94.8594 123.1 97.3486C121.144 102.665 117.42 111.454 116.246 113.524C115.793 114.322 115.583 115.074 115.78 115.195C116.151 115.423 116.912 114.036 118.426 110.374C118.911 109.2 120.979 104.306 123.021 99.4974C125.062 94.6891 126.926 90.0477 127.162 89.1829C127.748 87.0376 130.919 81.9623 131.804 81.7541C132.199 81.6611 133.227 80.5999 134.087 79.3959C134.948 78.1919 135.806 77.3015 135.994 77.4172C136.182 77.533 136.26 77.3015 136.166 76.9028C136.01 76.2393 136.079 76.2261 136.99 76.7472C137.958 77.3014 137.967 77.3815 137.319 79.768C136.954 81.1163 136.379 83.0588 136.044 84.0844C135.708 85.1101 135.639 85.901 135.889 85.8421C136.139 85.7832 136.667 84.6265 137.061 83.2719C137.455 81.9172 137.996 80.7571 138.264 80.6937C138.532 80.6304 138.881 79.6283 139.039 78.4668C139.198 77.3054 139.663 76.1552 140.073 75.9111C140.484 75.6669 140.862 75.155 140.915 74.7736C141.037 73.8928 142.047 73.643 142.9 74.2833C143.348 74.6205 143.432 74.8998 143.164 75.1662C142.948 75.3805 142.864 75.9487 142.977 76.4287C143.09 76.9087 143.047 77.7846 142.881 78.3751C142.715 78.9656 142.602 79.8042 142.63 80.2389C142.763 82.3062 141.748 90.2185 140.786 94.6177C140.196 97.3135 139.607 100.963 139.478 102.728C139.349 104.494 139.204 106.257 139.157 106.647C139.109 107.036 139.29 106.891 139.558 106.323C139.826 105.755 140.019 104.573 139.986 103.697C139.917 101.864 140.209 100.074 141.621 93.6737C142.179 91.1442 142.781 87.2587 142.959 85.0394C143.248 81.442 143.398 80.9774 144.339 80.756C145.81 80.4098 146.157 81.1613 146.101 84.5772C146.074 86.2074 146.203 88.0832 146.387 88.7454C146.624 89.6028 146.694 89.361 146.63 87.9054C146.449 83.8545 146.681 82.2935 147.448 82.3965C147.846 82.4499 148.339 82.4543 148.543 82.4061C148.748 82.358 149.488 82.8199 150.189 83.4323C151.261 84.3699 151.424 84.7367 151.22 85.752C151.087 86.4153 151.229 88.8955 151.537 91.2637C151.846 93.6319 152.11 96.1605 152.125 96.8828C152.143 97.7363 152.289 98.0608 152.542 97.8096C153.008 97.3464 152.945 92.9046 152.442 90.7666C152.213 89.7925 152.262 89.4196 152.578 89.7345C152.914 90.0693 153.034 89.7312 152.951 88.6814C152.885 87.831 152.768 86.3237 152.691 85.3318C152.615 84.34 152.28 81.9401 151.948 79.9987C151.358 76.561 150.955 71.432 150.86 66.1758L150.813 63.5833L152.533 64.8641C155.721 67.238 155.764 67.3343 157.416 75.7072C159.872 88.1597 160.888 94.1902 160.544 94.271C160.367 94.3127 160.211 94.7624 160.198 95.2704C160.183 95.8516 160.389 96.1435 160.755 96.0576C161.21 95.9505 161.73 97.4913 163.161 103.18C164.166 107.172 165.296 111.949 165.674 113.794C166.077 115.762 166.577 117.222 166.884 117.324C167.224 117.436 167.206 116.641 166.832 115.054C166.475 113.535 166.447 112.673 166.758 112.776C167.033 112.867 167.21 112.735 167.15 112.481C167.09 112.228 166.845 112.067 166.604 112.124C166.364 112.18 166.075 111.835 165.962 111.357C165.826 110.777 166.049 110.418 166.632 110.281C167.135 110.163 167.439 109.785 167.347 109.394C167.233 108.91 166.951 108.852 166.376 109.194C165.707 109.592 165.52 109.478 165.298 108.533C165.145 107.882 165.245 107.462 165.53 107.557C165.805 107.648 165.984 107.527 165.928 107.288C165.872 107.049 165.601 106.778 165.325 106.687C164.623 106.454 164.284 104.705 164.784 103.894C165.118 103.351 165.043 103.171 164.407 102.988C163.795 102.811 163.549 102.273 163.331 100.63C163.175 99.4597 163.237 98.3086 163.468 98.0725C163.778 97.7566 163.691 97.4449 163.137 96.8943C161.522 95.2888 161.861 93.846 164.118 92.7179C165.835 91.86 170.728 88.8816 172.392 87.682C173.152 87.1342 175.044 86.1308 176.598 85.452C178.152 84.7731 179.383 84.0503 179.335 83.8456C179.287 83.6411 178.926 83.6493 178.532 83.864C178.138 84.0787 178.339 83.8301 178.979 83.3113C180.565 82.025 184.626 80.146 184.906 80.5691C185.269 81.1167 188.792 84.8975 193.186 89.4564C195.419 91.7734 197.759 94.4782 198.384 95.4672C200.67 99.0825 202.224 101.26 203.573 102.738C205.245 104.571 204.776 103.522 202.319 99.9347C201.314 98.4672 199.738 96.1527 198.818 94.7914C197.897 93.4302 195.183 90.3238 192.785 87.8883C187.788 82.8109 184.484 79.0032 184.968 78.8791C185.151 78.8323 185.057 78.6992 184.761 78.5836C184.464 78.4679 182.713 76.6721 180.871 74.5929C179.028 72.5136 176.111 69.3785 174.389 67.626C170.438 63.6046 165.677 58.2657 164.985 57.0795C164.528 56.2967 164.615 56.1338 165.614 55.8988C166.476 55.6959 168.369 56.5122 173.017 59.0915C176.452 60.9974 180.705 63.2129 182.47 64.0148C184.234 64.8169 186.007 65.8972 186.41 66.4156C186.813 66.9342 187.373 67.3043 187.654 67.2381C188.102 67.1327 199.315 74.9378 214.637 86.0207C217.337 87.9734 219.641 89.5483 219.758 89.5207C220.31 89.391 209.143 81.0133 199.846 74.5826C197.6 73.0285 195.897 71.7248 196.063 71.6858C196.23 71.6467 198.743 72.9066 201.649 74.4855C207.111 77.4533 213.411 80.0941 220.197 82.2607C224.663 83.6865 225.657 83.6207 221.722 82.1597C210.879 78.1349 197.784 72.0233 197.51 70.8604C197.457 70.6347 197.807 70.3576 198.288 70.2444C198.769 70.1312 199.115 69.8341 199.056 69.584C198.989 69.3 198.4 69.3716 197.485 69.775C195.927 70.4624 195.76 70.3701 196.126 69.0254C196.254 68.557 196.581 67.1405 196.852 65.8774C197.544 62.6594 198.539 62.5372 198.893 65.6268C199.073 67.1986 199.25 67.7253 199.428 67.2222C199.574 66.8091 199.556 65.8735 199.388 65.143C199.037 63.6137 199.518 62.611 200.741 62.3233C201.98 62.0319 208.885 64.1593 214.361 66.5195C216.967 67.6427 219.216 68.5341 219.359 68.5004C219.502 68.4667 221.233 68.9616 223.206 69.5999C235.958 73.7266 238.447 74.5129 239.873 74.8647C240.748 75.0808 241.441 75.1559 241.412 75.0315C241.336 74.7105 234.368 72.2347 225.045 69.2165C220.649 67.7934 214.974 65.7433 212.435 64.6607C209.896 63.5781 206.474 62.274 204.831 61.7624C196.454 59.1558 189.676 56.8387 188.211 56.0815C187.311 55.6161 183.981 54.2644 180.812 53.0778C177.643 51.8912 174.38 50.6036 173.561 50.2167L172.071 49.513L175.857 48.9637C183.565 47.8453 188.949 47.9383 195.985 49.3115C197.097 49.5286 199.388 49.5989 201.076 49.4679C202.765 49.3369 204.658 49.4144 205.283 49.6401C205.908 49.8658 206.621 49.8499 206.867 49.6049C207.136 49.3377 207.245 49.3704 207.138 49.6864C207.038 49.9852 207.605 50.2799 208.45 50.3669C210.567 50.5851 211.222 50.2732 209.217 50.0015C207.213 49.7298 207.868 49.418 209.985 49.6361C210.804 49.7205 211.408 49.9854 211.327 50.2248C211.246 50.4643 211.757 50.6464 212.461 50.6294C213.871 50.5956 219.697 51.2117 232.714 52.7709C242.888 53.9897 242.925 53.9924 242.806 53.5135C242.755 53.3067 240.738 52.8952 238.322 52.5991ZM222.916 51.0782C221.549 50.8564 220.486 50.586 220.553 50.4775C220.621 50.3691 221.794 50.462 223.162 50.6838C224.529 50.9056 225.592 51.176 225.524 51.2844C225.457 51.3929 224.283 51.3 222.916 51.0782ZM198.47 62.0972C197.914 62.4741 194.826 60.6233 195.148 60.1061C195.33 59.8132 198.877 61.0366 198.977 61.4268C199.016 61.58 198.788 61.8816 198.47 62.0972ZM196.555 64.6142C196.251 65.3559 195.86 66.8091 195.687 67.8434L195.372 69.7243L192.696 68.1053C191.224 67.215 189.935 66.1276 189.832 65.6887C189.728 65.2445 190.171 64.4209 190.832 63.8297C191.485 63.2461 192.558 62.2051 193.216 61.5166L194.412 60.2648L195.243 61.0396C195.997 61.7425 196.873 62.7569 197.042 63.1227C197.078 63.2013 196.859 63.8725 196.555 64.6142ZM190.862 62.7084L189.442 64.0323L188.888 61.5389C187.973 57.4216 188.131 57.2113 191.261 58.3859L193.939 59.3913L193.11 60.3878C192.654 60.9359 191.642 61.9801 190.862 62.7084ZM194.545 70.666C194.467 70.6844 193.799 70.2736 193.061 69.7528L191.719 68.8062L193.17 69.5777C194.526 70.2988 194.888 70.5853 194.545 70.666ZM185.436 46.8369C184.34 46.6738 183.498 46.4523 183.565 46.3447C183.632 46.237 184.587 46.2769 185.687 46.4335C186.787 46.5902 187.629 46.8115 187.557 46.9257C187.486 47.0399 186.531 47 185.436 46.8369ZM181.724 39.5607C181.395 39.5108 181.618 39.3542 182.219 39.2128C182.82 39.0713 183.089 39.1122 182.817 39.3035C182.545 39.4949 182.053 39.6106 181.724 39.5607ZM188.564 65.1787C188.286 66.0046 186.305 64.7891 184.505 62.6885C183.319 61.3042 183.129 60.8563 183.453 60.2094C183.801 59.5148 184.035 59.5135 185.399 60.1988C186.251 60.6273 187.178 60.9184 187.459 60.8454C187.74 60.7727 187.143 60.2918 186.134 59.7768C184.357 58.8703 184.32 58.8134 184.994 57.9916C185.377 57.5248 186.059 57.0561 186.509 56.9501C187.263 56.7728 187.386 57.0696 188.045 60.6763C188.439 62.8317 188.672 64.8577 188.564 65.1787ZM181.947 57.4763C178.94 55.8991 175.883 53.8843 176.062 53.597C176.152 53.4523 178.252 53.9507 180.729 54.7047L185.233 56.0757L184.538 57.2732L183.843 58.4705L181.947 57.4763ZM177.376 39.6796C176.925 39.6693 177.144 39.5149 177.864 39.3363C178.583 39.1577 178.953 39.166 178.684 39.3549C178.416 39.5437 177.828 39.6898 177.376 39.6796ZM183.057 59.7443C182.785 60.1808 181.387 59.0708 181.174 58.249C181.054 57.788 181.272 57.7815 182.076 58.2226C183.196 58.837 183.412 59.1731 183.057 59.7443ZM179.835 61.2499C175.575 58.5849 172.164 55.0586 170.931 52.0464C170.224 50.3183 170.228 50.3061 171.316 50.7824C172.536 51.3162 174.892 53.1427 173.965 52.8352C172.638 52.3955 173.721 53.4894 176.291 55.1843C177.797 56.1779 179.269 57.4761 179.563 58.0691C179.856 58.6623 180.527 59.5624 181.054 60.0696C182.845 61.7928 184.081 63.2585 183.943 63.4966C183.868 63.6271 182.019 62.6161 179.835 61.2499ZM175.681 44.9918C173.755 44.7739 171.513 44.2625 170.7 43.8558C169.887 43.449 168.941 43.182 168.599 43.2625C168.256 43.343 167.93 43.2132 167.874 42.974C167.818 42.7348 167.974 42.4915 168.22 42.4335C168.802 42.2966 179.452 44.9587 179.3 45.2029C179.236 45.3049 177.608 45.2099 175.681 44.9918ZM179.099 48.1363C178.784 48.2104 178.076 48.07 177.526 47.8242C176.61 47.4155 176.655 47.3892 178.057 47.5147C179.657 47.658 180.074 47.9069 179.099 48.1363ZM172.762 27.9129C172.311 27.9027 172.53 27.7483 173.249 27.5697C173.969 27.3911 174.338 27.3994 174.07 27.5882C173.802 27.777 173.214 27.9231 172.762 27.9129ZM172.829 38.2154C170.926 38.5781 168.627 39.2724 167.722 39.7583C165.812 40.7838 164.08 43.099 164.517 44.044C164.682 44.4028 166.113 44.907 167.697 45.1645C171.331 45.7552 172.352 46.2816 171.122 46.9305C170.4 47.3112 170.311 47.2622 170.616 46.6534C171.156 45.5755 170.521 45.8777 169.269 47.294L168.181 48.5265L166.705 47.8973C165.894 47.5512 165.139 47.2895 165.028 47.3156C164.917 47.3417 164.847 48.0295 164.873 48.8439C164.978 52.2031 165.026 52.1587 162.76 50.8009C160.88 49.6749 160.586 49.6285 159.693 50.3171C158.479 51.252 158.502 51.3519 160.406 53.3841C161.249 54.2844 161.946 55.0499 161.955 55.0852C162.005 55.2927 157.472 56.0399 157.196 55.8698C157.011 55.7562 156.52 55.7432 156.105 55.8408C155.282 56.0345 154.622 55.3045 154.271 53.8124C154.147 53.2871 153.662 52.5159 153.192 52.0986C152.722 51.6812 152.432 51.187 152.549 51.0002C152.665 50.8134 152.542 50.7119 152.276 50.7746C152.009 50.8373 151.716 51.1129 151.623 51.3871C151.531 51.6613 150.969 52.0001 150.374 52.14C148.954 52.474 146.53 54.2405 146.097 55.2564C145.799 55.9543 145.642 55.9157 144.902 54.9636C144.085 53.9122 144.032 53.9071 143.634 54.8407C143.243 55.7587 143.161 55.7834 142.227 55.2707C141.682 54.9714 140.741 54.1711 140.137 53.4922C138.599 51.7655 136.889 51.4579 135.707 52.6959C135.024 53.4106 134.647 53.551 134.181 53.2638C133.278 52.7081 132.633 52.9813 133.432 53.5812C133.804 53.8611 134.023 54.3457 133.918 54.6579C133.804 54.9956 133.219 54.5633 132.473 53.5906C131.784 52.6914 131.21 51.9138 131.198 51.8624C131.186 51.811 132.564 50.9492 134.261 49.9475C135.957 48.9456 137.352 47.9098 137.361 47.6455C137.369 47.3813 137.361 45.9778 137.343 44.5265C137.314 42.2263 137.428 41.8969 138.231 41.957C138.776 41.9979 139.249 41.7489 139.39 41.3473C139.759 40.2892 139.347 39.1278 138.66 39.2896C137.976 39.4505 135.064 37.7927 134.082 36.6833C133.417 35.9319 133.48 33.6232 134.17 33.4608C134.758 33.3225 136.419 30.8988 136.294 30.3635C136.232 30.1014 136.38 29.6255 136.623 29.3057C137.317 28.392 138.639 29.2021 140.542 31.7087C141.656 33.1765 142.423 33.8214 142.771 33.5849C143.327 33.2086 145.471 35.4651 146.542 37.5543C146.861 38.1758 147.322 38.751 147.567 38.832C147.984 38.9704 147.98 38.6468 147.526 35.8269C147.428 35.2188 147.299 34.3937 147.239 33.9934C147.179 33.5931 147.568 33.0396 148.104 32.7634C148.859 32.3747 149.102 31.7166 149.18 29.8494C149.271 27.6553 149.396 27.4079 150.557 27.1091C151.26 26.9284 152.023 26.5843 152.254 26.3443C152.485 26.1042 153.509 26.2247 154.53 26.6121C155.55 26.9995 156.633 27.2581 156.936 27.1869C157.239 27.1157 158.421 27.453 159.563 27.9365C160.705 28.4198 161.724 28.6788 161.829 28.5117C161.933 28.3446 162.308 28.5186 162.664 28.8985C164.232 30.575 164.241 30.5768 165.743 29.4931C166.526 28.9282 167.244 28.2382 167.337 27.9599C167.534 27.3762 168.331 27.0909 168.33 27.6047C168.33 27.7941 168.754 28.7043 169.272 29.6274C169.799 30.5667 170.158 31.7454 170.088 32.3042C169.986 33.1158 170.553 33.6925 173.117 35.3881C174.852 36.5352 176.276 37.4922 176.281 37.5148C176.287 37.5375 174.733 37.8527 172.829 38.2154ZM175.324 39.6988C174.943 39.6421 175.022 39.5147 175.527 39.3739C175.983 39.2466 176.266 39.2887 176.154 39.4674C176.043 39.6459 175.669 39.7502 175.324 39.6988ZM170.471 22.6257C170.231 22.6823 170.014 22.6423 169.989 22.5368C169.964 22.4313 170.112 22.1778 170.318 21.9733C170.523 21.7689 170.74 21.809 170.8 22.0623C170.86 22.3155 170.712 22.5691 170.471 22.6257ZM173.55 48.6977C170.883 49.1862 169.562 49.0031 171.857 48.463C173.238 48.1381 173.592 47.4213 172.456 47.249C172.127 47.1992 172.051 47.0972 172.288 47.0226C172.72 46.8862 175.935 47.8122 176.001 48.0923C176.02 48.1749 174.917 48.4473 173.55 48.6977ZM182.089 80.3472C181.37 80.7964 179.829 81.5289 178.664 81.9749C177.5 82.421 175.32 83.5627 173.82 84.5121C171.581 85.9289 169.815 86.5377 169.675 85.9408C169.661 85.8798 168.053 82.1351 166.102 77.6193C164.151 73.1033 162.429 68.8841 162.276 68.243C162.122 67.6019 161.478 66.1856 160.843 65.0956C159.033 61.9851 159.171 61.8509 162.692 63.2982C165.303 64.3714 166.093 64.9285 166.588 66.0446C166.93 66.8146 167.338 67.3684 167.496 67.2751C167.935 67.015 173.202 69.0609 174.727 70.0841L176.081 70.9927L174.911 70.9244C173.535 70.844 173.74 71.0233 176.031 71.9054C177.523 72.4799 182.739 77.6755 183.239 79.0858C183.326 79.3303 182.808 79.8979 182.089 80.3472ZM169.432 28.1152C168.848 27.2262 168.916 26.9112 169.639 27.1509C169.92 27.2442 170.102 27.6717 170.043 28.101C169.948 28.7869 169.874 28.7886 169.432 28.1152ZM163.675 7.47075C163.4 7.37946 163.227 7.52521 163.29 7.79444C163.353 8.06381 163.045 9.08441 162.604 10.0626C162.163 11.0408 161.621 12.4853 161.398 13.2723C160.754 15.5459 156.302 25.041 155.828 25.1526C155.591 25.2082 155.329 24.9602 155.244 24.6013C155.16 24.2425 154.894 23.9952 154.654 24.0518C154.413 24.1084 154.205 24.0025 154.191 23.8163C154.105 22.643 153.668 22.4477 152.004 22.8391C150.451 23.2044 150.298 23.3359 150.899 23.7875C151.471 24.217 151.469 24.342 150.888 24.4788C150.463 24.5787 150.094 24.2863 149.968 23.7501C149.852 23.2577 149.589 23.0218 149.383 23.2263C148.785 23.8205 148.661 22.4196 149.243 21.6526C149.534 21.2699 149.714 20.7112 149.644 20.4109C149.573 20.1107 149.742 19.5659 150.02 19.2004C150.422 18.6718 150.754 18.6763 151.64 19.2219C152.254 19.5994 152.807 20.1248 152.869 20.3897C152.931 20.6544 153.223 20.7083 153.516 20.5095C153.81 20.3106 154.368 20.2572 154.757 20.3909C155.319 20.5837 155.296 20.6751 154.648 20.8331C153.971 20.9982 153.95 21.1225 154.528 21.5568C155.432 22.236 156.036 22.0814 155.834 21.2225C155.746 20.8496 155.869 20.609 156.107 20.6879C156.569 20.841 159.365 15.7054 159.23 14.9515C159.186 14.7046 159.619 12.4951 160.192 10.0414L161.235 5.58026L162.671 6.46423C164.163 7.38214 164.536 7.75614 163.675 7.47075ZM172.33 57.991C171.189 57.4595 170.208 56.8199 170.149 56.5698C170.091 56.3197 171.008 56.6892 172.188 57.3911C174.917 59.0135 174.965 59.2195 172.33 57.991ZM176.408 72.7629C174.467 72.005 173.732 71.7983 173.785 72.0256C173.871 72.3895 177.506 73.8484 177.67 73.5846C177.761 73.4393 177.193 73.0695 176.408 72.7629ZM170.911 55.8157C170.039 55.3041 169.388 54.6954 169.467 54.4632C169.545 54.2309 169.336 54.1051 169.003 54.1834C168.67 54.2618 167.797 53.914 167.064 53.4107L165.73 52.4956L167.381 53.138C168.289 53.4913 168.984 53.5781 168.926 53.3311C168.868 53.084 168.377 52.7649 167.836 52.622C166.208 52.1921 166.308 51.1185 167.983 51.0603C169.359 51.0124 169.382 50.9788 168.652 50.0883C167.934 49.2132 167.94 49.201 168.774 49.8498C169.802 50.6508 170.46 52.9228 169.714 53.0983C169.431 53.1648 169.707 53.5648 170.326 53.9871C172.563 55.5138 173.064 57.0773 170.911 55.8157ZM163.116 22.7495C162.444 22.5266 162.642 23.2387 163.378 23.6918C163.749 23.9199 163.83 24.186 163.6 24.4147C163.4 24.6138 162.924 24.5425 162.543 24.2562C161.993 23.8431 161.931 23.576 162.239 22.961C162.582 22.2763 163.427 22.1088 163.565 22.698C163.594 22.8176 163.391 22.8408 163.116 22.7495ZM160.322 12.6203C160.072 12.679 159.754 13.1481 159.616 13.6628C159.411 14.4267 159.499 14.5454 160.098 14.3092C160.88 14.0009 161.087 12.4402 160.322 12.6203ZM171.222 59.1695C170.982 59.226 170.877 59.6638 170.99 60.1422C171.102 60.6206 171.391 60.9658 171.632 60.9092C171.872 60.8526 171.977 60.4149 171.864 59.9365C171.752 59.458 171.463 59.1129 171.222 59.1695ZM162.783 26.9145C162.305 27.3897 159.254 27.1732 158.505 26.611C157.656 25.9729 158.469 23.4408 159.48 23.5766C159.848 23.6261 159.984 23.5016 159.781 23.2994C159.578 23.0975 159.621 22.8832 159.876 22.8233C160.13 22.7634 160.461 23.2363 160.612 23.8742C160.762 24.5121 160.983 24.8765 161.102 24.6839C161.358 24.2741 162.765 25.3347 162.963 26.0862C163.038 26.3693 162.957 26.742 162.783 26.9145ZM170.939 65.726C170.058 65.0847 169.189 64.7074 169.008 64.8878C168.482 65.4098 167.514 64.9043 166.334 63.4922C165.678 62.7085 164.845 62.2193 164.256 62.2726C162.945 62.3913 162.344 61.8526 161.53 59.8318C160.963 58.423 160.976 58.0182 161.613 57.3795C162.283 56.7075 162.525 56.7283 163.604 57.5505C164.803 58.4646 172.377 66.246 172.485 66.6755C172.516 66.7946 171.82 66.3672 170.939 65.726ZM172.331 68.5477C172.241 68.5691 171.847 68.347 171.458 68.0542C170.865 67.6091 170.877 67.5391 171.532 67.6269C172.2 67.7167 172.821 68.4324 172.331 68.5477ZM171.692 72.2053C169.764 71.7906 164.409 71.7058 164.172 72.0863C163.905 72.5149 167.623 72.9324 169.03 72.6318C169.782 72.4709 171.024 72.4893 171.788 72.6726C172.553 72.8561 173.238 72.9106 173.311 72.7939C173.384 72.6772 172.655 72.4124 171.692 72.2053ZM170.901 70.0633C168.256 69.6493 166.937 69.6508 167.571 70.067C168.161 70.4543 172.585 70.8463 172.504 70.5041C172.479 70.3958 171.757 70.1973 170.901 70.0633ZM171.048 67.0137C170.957 67.0351 170.532 66.7737 170.103 66.4326C169.397 65.8708 169.409 65.8518 170.23 66.2295C171.092 66.6263 171.407 66.9291 171.048 67.0137ZM169.546 67.4081C168.395 67.1043 167.121 66.1539 167.357 65.7753C167.509 65.5301 170.327 67.1341 170.417 67.5177C170.434 67.5883 170.042 67.539 169.546 67.4081ZM164.879 53.2943C163.783 52.6827 162.665 52.079 162.394 51.9527C162.123 51.8264 162.039 51.6908 162.207 51.6513C162.59 51.5613 166.732 53.8121 166.812 54.154C166.845 54.2926 165.975 53.9057 164.879 53.2943ZM163.386 55.1995C163.165 55.0408 162.338 54.2368 161.548 53.4129L160.111 51.9148L162.731 53.3639C164.85 54.5356 165.202 54.8776 164.57 55.1505C164.14 55.3361 163.608 55.3581 163.386 55.1995ZM164.763 63.5272C164.376 63.2889 164.303 63.0924 164.577 63.0279C165.16 62.8906 165.799 63.2833 165.575 63.6422C165.48 63.7951 165.115 63.7434 164.763 63.5272ZM164.047 59.9396C163.82 59.9928 163.56 60.2607 163.467 60.5349C163.375 60.8091 163.606 60.9612 163.981 60.873C164.356 60.7848 164.617 60.5169 164.561 60.2777C164.504 60.0385 164.273 59.8863 164.047 59.9396ZM153.462 18.6067C153.296 18.5046 153.347 18.122 153.577 17.7566C153.909 17.2286 153.971 17.2669 153.879 17.9425C153.816 18.4101 153.628 18.709 153.462 18.6067ZM163.549 58.6797C163.458 58.7011 163.205 59.0751 162.987 59.511C162.655 60.1735 162.697 60.2308 163.243 59.8605C163.801 59.4823 164.039 58.5644 163.549 58.6797ZM168.839 87.451C168.492 87.6858 167.395 88.0986 166.401 88.3683L164.592 88.8588L166.41 88.738L168.228 88.617L166.759 89.312C165.951 89.6942 164.692 90.0812 163.961 90.172C163.08 90.2816 162.713 90.5116 162.87 90.8551C163 91.1401 162.91 91.4193 162.67 91.4759C162.01 91.6312 161.7 89.7051 162.204 88.575C162.785 87.2706 162.702 86.9925 161.712 86.9154C161.033 86.8625 160.766 86.3251 160.182 83.843C159.793 82.1884 159.572 80.6764 159.691 80.4829C159.81 80.2893 159.527 78.9902 159.062 77.5958C158.319 75.367 158.311 75.0732 158.998 75.1656C159.575 75.2431 159.722 75.0232 159.559 74.3286C159.437 73.8104 159.169 73.5537 158.963 73.7582C158.757 73.9627 158.515 73.8132 158.424 73.4261C158.332 73.039 158.427 72.7786 158.633 72.8472C158.84 72.9158 158.537 70.8822 157.96 68.328C157.382 65.7738 156.896 62.7579 156.879 61.6259L156.847 59.5678L157.709 61.6601C158.183 62.8108 159.583 65.8895 160.82 68.5017C163.281 73.6958 169.189 86.3226 169.361 86.7544C169.42 86.9029 169.185 87.2164 168.839 87.451ZM161.577 62.3566C161.102 62.4684 159.918 60.264 160.062 59.5357C160.198 58.8454 160.555 59.3895 161.672 61.99C161.746 62.1621 161.703 62.3269 161.577 62.3566ZM147.199 27.5268C146.762 28.45 146.28 29.2348 146.127 29.2709C145.974 29.3069 145.605 28.7224 145.307 27.9719C144.916 26.9856 144.946 26.3594 145.415 25.7123C145.791 25.1948 145.93 24.2424 145.744 23.4546C145.407 22.0214 145.487 21.932 147.069 21.9791C147.98 22.0062 148.053 22.1566 148.024 23.9284C148.007 24.9843 147.636 26.6035 147.199 27.5268ZM156.052 57.4598C155.846 57.6643 155.632 57.6358 155.576 57.3966C155.519 57.1574 155.642 56.7944 155.847 56.59C156.053 56.3855 156.267 56.414 156.324 56.6532C156.38 56.8925 156.258 57.2554 156.052 57.4598ZM163.791 95.3298C163.356 95.115 162.926 95.0601 162.833 95.2079C162.597 95.5877 163.48 96.7935 163.919 96.6902C164.641 96.5203 164.565 95.7122 163.791 95.3298ZM147.75 29.1455C147.296 30.0925 147.284 30.0807 147.533 28.9399C147.858 27.4586 148.002 27.1643 148.132 27.717C148.187 27.9503 148.015 28.5932 147.75 29.1455ZM165.135 101.3C164.442 100.874 163.635 101.345 164.042 101.94C164.264 102.266 164.721 102.469 165.056 102.39C165.699 102.238 165.74 101.673 165.135 101.3ZM167.862 113.664C167.608 113.724 167.567 113.94 167.772 114.144C167.977 114.348 168.231 114.495 168.337 114.47C168.443 114.445 168.484 114.229 168.428 113.99C168.372 113.75 168.117 113.604 167.862 113.664ZM145.54 21.6057C145.179 21.6906 144.84 21.5704 144.785 21.3387C144.731 21.1071 145.008 20.9606 145.401 21.0135C145.794 21.0664 146.134 21.1864 146.156 21.2805C146.178 21.3744 145.901 21.5209 145.54 21.6057ZM152.63 56.1559C152.134 55.9345 151.663 55.7362 151.585 55.7154C151.507 55.6945 151.819 55.4785 152.28 55.2355C152.919 54.8981 153.166 55.002 153.325 55.676C153.506 56.4485 153.42 56.5084 152.63 56.1559ZM154.682 63.469L155.243 65.9124L153.756 64.426C152.148 62.8182 151.953 62.0595 153.105 61.8889C154.069 61.746 153.955 61.4352 152.612 60.5503C151.504 59.8197 151.203 58.0831 152.244 58.4284C152.533 58.5238 152.97 58.1617 153.216 57.6234C153.621 56.7357 153.684 56.8484 153.892 58.8353C154.018 60.04 154.374 62.1252 154.682 63.469ZM145.136 34.3764C144.278 33.3454 143.24 32.494 142.831 32.4844C141.617 32.456 138.295 27.2211 139.155 26.6924C139.411 26.535 138.945 25.7428 138.009 24.7436C137.142 23.8175 136.334 22.67 136.213 22.1935C136.092 21.717 135.367 20.545 134.601 19.5891C132.615 17.109 131.713 15.1425 132.202 14.3575C132.294 14.2103 133.855 15.0173 135.672 16.1508C138.437 17.8758 139.061 18.0985 139.503 17.5171C139.947 16.9325 140.196 17.0496 141.073 18.2567C141.84 19.3108 142.356 20.8784 143.022 24.1712C144.08 29.4107 144.013 29.9124 142.284 29.6854C141.602 29.596 140.965 29.6506 140.867 29.8068C140.593 30.2471 141.194 30.4731 142.213 30.3127C143.073 30.1773 143.101 30.2334 142.612 31.1121C142.323 31.632 142.28 32.0118 142.516 31.9564C142.752 31.9009 143.303 31.2368 143.74 30.4809L144.536 29.1061L145.05 30.2874C145.334 30.937 145.82 32.5446 146.132 33.8598L146.698 36.2511L145.136 34.3764ZM140.255 16.3751C139.871 16.0604 139.03 15.769 138.387 15.7276C136.776 15.6238 135.409 14.8322 135.183 13.873C135.079 13.4317 134.784 13.12 134.528 13.1804C134.253 13.2449 134.27 13.6672 134.567 14.204C135.055 15.0861 135.033 15.0873 133.932 14.2385C133.047 13.5562 132.755 12.9568 132.631 11.561C132.423 9.21936 132.725 3.40051 133.089 2.75512C133.245 2.4787 133.288 1.89357 133.185 1.45501C133.082 1.01645 133.294 -0.489711 133.658 -1.89221L134.318 -4.44205L135.464 -1.03972C136.589 2.2985 139.72 12.4651 140.538 15.4384C140.889 16.7115 140.844 16.8578 140.255 16.3751ZM148.622 60.1259C148.552 61.1521 148.728 63.1763 149.013 64.6239C149.298 66.0716 149.541 68.0799 149.553 69.0869C149.565 70.0938 149.861 72.7387 150.21 74.9644L150.844 79.0111L149.412 78.9441C146.707 78.8173 146.591 78.5738 146.393 72.5644C146.294 69.5693 146.371 66.2552 146.564 65.1999C146.757 64.1447 147.086 61.9481 147.295 60.3185C147.504 58.689 147.893 56.8416 148.161 56.2132C148.638 55.0922 148.648 55.1008 148.698 56.6653C148.726 57.5424 148.691 59.0996 148.622 60.1259ZM144.821 61.3541C144.432 63.2815 144.035 65.3432 143.938 65.9358C143.764 66.9983 143.74 66.996 142.173 65.7684L140.585 64.5239L141.218 63.1727L141.851 61.8215L141.897 63.2509C141.928 64.2092 142.114 64.6402 142.462 64.5586C142.746 64.4916 142.809 64.2666 142.6 64.0586C142.391 63.8507 142.487 62.8904 142.812 61.925C143.137 60.9594 143.218 59.8198 142.991 59.3928C142.486 58.4412 143.568 56.7359 144.59 56.8733C145.606 57.0099 145.625 57.3734 144.821 61.3541ZM150.947 82.9109C151.048 83.4104 149.37 81.8188 149.207 81.2603C149.161 81.1053 149.553 80.9885 150.078 81.0007C150.675 81.0147 150.997 81.2812 150.938 81.7112C150.885 82.0897 150.89 82.6295 150.947 82.9109ZM148.151 73.3158C147.624 72.5271 147.45 72.4752 147.295 73.0607C146.883 74.6112 147.21 76.6637 147.884 76.7542C148.813 76.879 148.992 74.5757 148.151 73.3158ZM141.707 58.3189C140.866 59.5789 140.825 59.5936 139.897 58.9645C138.996 58.3537 138.994 58.3409 139.848 58.714C140.41 58.9596 140.707 58.9321 140.638 58.6404C140.578 58.3838 140.141 58.0637 139.667 57.9291C139.193 57.7946 138.915 57.5087 139.049 57.2939C139.183 57.0792 138.89 56.7259 138.399 56.509C137.908 56.292 137.716 56.0585 137.973 55.99C138.23 55.9216 139.017 56.2461 139.723 56.7113C141.097 57.617 142.31 57.7189 141.126 56.8292C140.736 56.5361 140.509 56.1481 140.622 55.9667C140.735 55.7854 140.294 55.171 139.643 54.6016C138.992 54.0321 138.569 53.5401 138.704 53.5083C139.006 53.4375 142.401 56.3268 142.498 56.7358C142.536 56.8975 142.18 57.6099 141.707 58.3189ZM145.606 77.0917C145.255 77.7611 145.091 76.8293 145.341 75.5859L145.631 74.1405L145.676 75.507C145.701 76.2586 145.669 76.9718 145.606 77.0917ZM131.923 21.5961C131.169 20.8746 131.034 20.2987 131.668 20.5088C131.943 20.6001 132.243 21.0064 132.334 21.4118C132.478 22.047 132.421 22.0724 131.923 21.5961ZM133.729 31.7216C132.932 31.9034 132.85 31.8362 133.3 31.3705C134.019 30.626 134.484 30.5168 134.612 31.0618C134.668 31.301 134.27 31.5979 133.729 31.7216ZM145.327 78.5726C145.087 78.6292 144.87 78.5892 144.845 78.4837C144.82 78.3781 144.968 78.1247 145.174 77.9202C145.38 77.7157 145.597 77.7558 145.656 78.0091C145.716 78.2624 145.568 78.516 145.327 78.5726ZM142.617 71.9487C141.189 73.0492 139.46 72.0453 139.32 70.0349C139.265 69.2394 139.038 68.5676 138.816 68.5419C138.593 68.516 138.685 67.9366 139.019 67.2542C139.353 66.5718 139.708 66.0752 139.808 66.1506C140.192 66.4416 143.408 70.5511 143.497 70.8656C143.55 71.048 143.153 71.5355 142.617 71.9487ZM143.857 82.1315C143.708 82.5452 143.633 83.0794 143.689 83.3186C143.745 83.5578 143.913 83.4151 144.062 83.0014C144.21 82.5878 144.286 82.0536 144.23 81.8143C144.174 81.5751 144.006 81.7179 143.857 82.1315ZM134.487 48.6788C133.738 49.0012 131.912 49.8475 130.43 50.5596C128.948 51.2717 125.495 52.9262 122.757 54.2361C120.019 55.5459 117.066 56.969 116.196 57.3983C115.102 57.9376 114.007 58.1348 112.653 58.0362C110.816 57.9022 110.775 57.8717 111.997 57.5411C112.712 57.3473 115.382 56.0732 117.929 54.7095C120.475 53.3458 122.759 52.2963 123.004 52.3774C123.595 52.5732 126.644 51.0765 129.425 49.2251C132.734 47.0225 131.65 47.0852 128.131 49.2999C126.474 50.3432 124.418 51.3612 123.563 51.5623C122.708 51.7634 120.2 52.8702 117.989 54.0218C113.74 56.2348 107.842 58.5002 110.676 56.8309C111.456 56.3711 113.22 55.3284 114.595 54.5135C115.971 53.6986 117.266 52.6939 117.473 52.2808C117.969 51.2904 117.731 51.3803 115.484 53.0328C114.291 53.9098 113.493 54.2674 113.327 53.9992C113.182 53.7651 112.871 53.6186 112.636 53.6739C112.402 53.7291 112.379 53.9426 112.585 54.1482C112.972 54.534 112.699 54.7648 110.765 55.688C109.869 56.1155 109.656 56.0786 109.734 55.5098C109.802 55.018 109.56 54.8565 108.965 54.9965C108.488 55.1087 107.796 54.974 107.427 54.6969C106.871 54.279 107.006 54.0832 108.224 53.5461C109.031 53.1901 109.965 52.9899 110.301 53.1011C110.691 53.2304 110.756 53.1485 110.481 52.8748C110.228 52.6222 110.326 52.3814 110.719 52.2888C111.158 52.1856 111.351 52.398 111.28 52.908C111.206 53.4444 111.348 53.5731 111.739 53.3244C112.05 53.1266 112.183 52.6025 112.034 52.1597C111.772 51.3821 111.791 51.3785 112.585 52.0522C113.038 52.4359 113.367 52.5649 113.318 52.3389C113.269 52.113 113.448 52.1415 113.716 52.4027C114.394 53.0626 115.575 52.1536 115.34 51.1528C115.119 50.2155 116.587 49.6379 117.205 50.4187C117.512 50.8057 117.614 50.7817 117.715 50.2987C117.785 49.9668 118.203 49.6102 118.644 49.5064C119.085 49.4027 119.467 49.093 119.492 48.8182C119.518 48.5436 120.398 48.0201 121.449 47.6549L123.36 46.9912L121.603 48.3506C119.777 49.7636 120.162 49.6574 124.528 47.5448C126.934 46.3808 127.182 46.3363 128.027 46.9165C128.684 47.3672 129.06 47.3784 129.381 46.9568C129.69 46.5499 129.945 46.4926 130.221 46.768C130.439 46.9855 131.265 46.934 132.057 46.6538C132.996 46.3215 133.624 46.3308 133.863 46.6805C134.065 46.9756 134.531 47.146 134.899 47.0594C136.183 46.7574 135.842 48.0958 134.487 48.6788ZM143.661 84.0136C143.569 84.0353 143.483 84.469 143.47 84.9773C143.456 85.4857 143.598 85.75 143.785 85.5646C144.111 85.2409 144.006 83.9324 143.661 84.0136ZM125.399 10.9674C124.128 9.55785 120.369 3.99468 120.521 3.74998C120.66 3.52696 126.186 11.0682 126.323 11.668C126.378 11.9075 125.962 11.5923 125.399 10.9674ZM138.34 72.4133C138.1 72.4698 137.857 72.3204 137.801 72.0812C137.744 71.842 137.895 71.6 138.136 71.5434C138.376 71.4868 138.619 71.6362 138.675 71.8754C138.731 72.1147 138.581 72.3567 138.34 72.4133ZM130.025 45.8969C129.785 45.9535 129.839 45.7406 130.145 45.4239C130.451 45.1072 130.898 44.8017 131.139 44.7451C131.379 44.6885 131.326 44.9014 131.019 45.2181C130.713 45.5348 130.266 45.8403 130.025 45.8969ZM142.154 94.9253C141.773 95.5007 141.149 99.7518 141.457 99.6793C141.738 99.6134 141.926 98.6 142.262 95.359C142.302 94.9709 142.254 94.7757 142.154 94.9253ZM119.071 4.16524C118.786 3.98958 117.433 2.16928 116.064 0.120263C113.036 -4.41479 113.684 -4.25474 116.98 0.346197C119.471 3.82461 119.955 4.70926 119.071 4.16524ZM135.175 74.1644C133.919 75.8778 133.46 75.9871 134.409 74.3471C134.95 73.4124 135.442 72.636 135.503 72.6217C135.888 72.5311 135.69 73.4628 135.175 74.1644ZM125.86 37.8469C125.038 37.4947 124.729 37.133 124.948 36.7779C125.167 36.4212 125.554 36.475 126.103 36.9381C127.362 38.0019 127.245 38.4402 125.86 37.8469ZM126.458 54.7632C125.594 55.1379 124.469 55.6545 123.959 55.9109C123.288 56.2477 122.984 56.1829 122.865 55.6778C122.775 55.293 123.039 54.8723 123.453 54.7427C126.842 53.682 127.88 53.4513 127.948 53.7437C127.992 53.9297 127.321 54.3885 126.458 54.7632ZM121.581 46.624C120.013 47.1776 119.611 47.1889 119.681 46.6773C119.744 46.2208 120.57 45.849 122.464 45.4239C125.458 44.752 124.958 45.432 121.581 46.624ZM124.345 46.6427C123.964 46.5861 124.043 46.4586 124.548 46.3179C125.004 46.1906 125.287 46.2326 125.175 46.4113C125.064 46.5899 124.691 46.6942 124.345 46.6427ZM129.697 80.8728C130.029 80.7945 130.615 80.2954 130.997 79.7635C131.38 79.2317 131.613 79.0585 131.514 79.3785C131.415 79.6987 130.015 81.4317 128.403 83.2297C126.79 85.0277 125.077 87.2226 124.595 88.1072C123.759 89.6431 120.063 94.4551 118.866 95.5672C118.159 96.2229 117.992 96.4772 121.923 90.9094C123.732 88.3474 125.818 85.526 126.559 84.6396C127.3 83.7532 127.776 82.8981 127.617 82.7396C127.458 82.581 128.265 81.3685 129.41 80.0451C130.68 78.5782 131.024 78.298 130.292 79.327C129.632 80.2555 129.364 80.9511 129.697 80.8728ZM128.573 81.5797C128.079 81.9984 127.822 82.432 128.003 82.5432C128.184 82.6546 128.589 82.312 128.902 81.7821C129.447 80.8608 129.432 80.8518 128.573 81.5797ZM119.133 57.9577C118.804 57.9078 119.026 57.7512 119.628 57.6097C120.229 57.4683 120.498 57.5091 120.226 57.7005C119.954 57.8918 119.462 58.0076 119.133 57.9577ZM112.267 60.0413C111.886 59.9846 111.965 59.8571 112.47 59.7164C112.926 59.5891 113.209 59.6311 113.098 59.8098C112.986 59.9884 112.613 60.0927 112.267 60.0413ZM106.457 64.6005C101.99 66.5767 101.66 66.2518 106.057 64.2055C107.948 63.325 109.868 62.4198 110.322 62.1939C111.077 61.819 111.091 61.8408 110.49 62.4455C110.128 62.8098 108.313 63.7795 106.457 64.6005ZM111.392 80.589C111.017 80.6772 110.787 80.5214 110.881 80.2427C110.975 79.9641 111.261 79.8056 111.517 79.8906C112.212 80.1207 112.16 80.4083 111.392 80.589ZM100.904 64.4318C98.4224 65.5666 96.4404 66.3527 96.4991 66.1785C96.5578 66.0043 97.7019 65.1045 99.0414 64.1788C100.381 63.2531 101.582 62.1095 101.711 61.6374C102.033 60.4578 103.682 60.1665 105.191 61.0228C106.671 61.8631 106.877 61.6995 100.904 64.4318ZM101.603 65.3495C100.62 65.5733 100.634 65.5334 101.742 64.9579C102.421 64.6055 103.369 64.2211 103.849 64.1034C104.533 63.9358 104.502 64.0206 103.71 64.495C103.154 64.8279 102.206 65.2125 101.603 65.3495ZM99.8511 62.0923C99.498 62.0607 99.6499 61.8169 100.205 61.5241C100.888 61.1638 101.072 61.1802 100.823 61.5793C100.629 61.8919 100.191 62.1227 99.8511 62.0923ZM100.944 66.8363C100.562 66.7796 100.642 66.6521 101.146 66.5114C101.603 66.3841 101.885 66.4261 101.774 66.6049C101.663 66.7834 101.289 66.8877 100.944 66.8363ZM96.2354 68.0343C95.3203 68.193 98.5868 66.2308 99.6726 65.9697C100.153 65.8542 99.7259 66.2456 98.7234 66.8393C97.7208 67.4332 96.6012 67.9709 96.2354 68.0343ZM59.8996 84.7447C59.5705 84.6948 59.7934 84.5382 60.3947 84.3967C60.996 84.2553 61.2651 84.2962 60.9929 84.4875C60.7206 84.6789 60.2286 84.7946 59.8996 84.7447Z" fill="white"/>
</g>
<defs>
<clipPath id="clip0_4_33">
<rect width="189" height="239" fill="white" transform="translate(232.649 -76) rotate(76.7616)"/>
</clipPath>
</defs>
</svg>
