<svg width="25" height="24" viewBox="0 0 25 24" fill="none" xmlns="http://www.w3.org/2000/svg">
<path d="M19.503 8.004C20.6087 8.004 21.505 7.10767 21.505 6.002C21.505 4.89633 20.6087 4 19.503 4C18.3973 4 17.501 4.89633 17.501 6.002C17.501 7.10767 18.3973 8.004 19.503 8.004Z" fill="#050505"/>
<path d="M19.375 13.219C18.808 13.672 18.397 14 17.497 14C16.597 14 16.209 13.689 15.621 13.219C14.941 12.676 14.096 12 12.494 12C10.892 12 10.049 12.676 9.37 13.219C8.782 13.689 8.395 14 7.495 14C6.597 14 6.209 13.689 5.622 13.22C4.943 12.676 4.1 12 2.5 12V14C3.397 14 3.785 14.311 4.372 14.78C5.051 15.324 5.895 16 7.495 16C9.095 16 9.941 15.324 10.62 14.78C11.207 14.31 11.596 14 12.494 14C13.394 14 13.805 14.328 14.372 14.781C15.051 15.324 15.896 16 17.497 16C19.099 16 19.944 15.324 20.624 14.781C21.212 14.311 21.601 14 22.5 14V12C20.899 12 20.054 12.676 19.375 13.219ZM17.497 19C16.598 19 16.209 18.689 15.621 18.219C14.941 17.676 14.096 17 12.494 17C10.892 17 10.049 17.676 9.37 18.219C8.782 18.689 8.395 19 7.495 19C6.597 19 6.209 18.689 5.622 18.22C4.943 17.676 4.1 17 2.5 17V19C3.397 19 3.785 19.311 4.372 19.78C5.051 20.324 5.895 21 7.495 21C9.095 21 9.941 20.324 10.62 19.78C11.207 19.31 11.596 19 12.494 19C13.394 19 13.805 19.328 14.372 19.781C15.051 20.324 15.896 21 17.497 21C19.099 21 19.944 20.324 20.624 19.781C21.212 19.311 21.601 19 22.5 19V17C20.899 17 20.054 17.676 19.375 18.219C18.808 18.672 18.397 19 17.497 19ZM11.5 5.419L13.604 7.523L11.547 10.093C11.833 10.037 12.143 10 12.494 10C14.096 10 14.941 10.676 15.621 11.219C16.209 11.689 16.598 12 17.497 12C18.397 12 18.808 11.672 19.375 11.219C19.507 11.114 19.649 11.002 19.798 10.893L17.702 8.803L17.707 8.798L12.207 3.298C12.0195 3.11053 11.7652 3.00521 11.5 3.00521C11.2348 3.00521 10.9805 3.11053 10.793 3.298L6.793 7.298L8.207 8.712L11.5 5.419Z" fill="#050505"/>
</svg>
