<svg width="25" height="24" viewBox="0 0 25 24" fill="none" xmlns="http://www.w3.org/2000/svg">
<path d="M18.6875 21C17.8346 21 17.0008 20.7471 16.2916 20.2732C15.5824 19.7994 15.0297 19.1258 14.7033 18.3378C14.3769 17.5498 14.2915 16.6827 14.4579 15.8462C14.6243 15.0096 15.035 14.2412 15.6381 13.6381C16.2412 13.035 17.0096 12.6243 17.8462 12.4579C18.6827 12.2915 19.5498 12.3769 20.3378 12.7033C21.1258 13.0297 21.7994 13.5824 22.2732 14.2916C22.7471 15.0008 23 15.8346 23 16.6875C22.9988 17.8309 22.544 18.927 21.7355 19.7355C20.927 20.544 19.8309 20.9988 18.6875 21ZM18.6875 13.875C18.1312 13.875 17.5875 14.04 17.125 14.349C16.6624 14.658 16.302 15.0973 16.0891 15.6112C15.8762 16.1251 15.8205 16.6906 15.929 17.2362C16.0376 17.7818 16.3054 18.2829 16.6988 18.6762C17.0921 19.0696 17.5932 19.3374 18.1388 19.446C18.6844 19.5545 19.2499 19.4988 19.7638 19.2859C20.2777 19.073 20.717 18.7126 21.026 18.25C21.3351 17.7875 21.5 17.2438 21.5 16.6875C21.4991 15.9418 21.2025 15.227 20.6753 14.6997C20.148 14.1725 19.4332 13.8759 18.6875 13.875ZM6.3125 21C5.45957 21 4.62579 20.7471 3.91661 20.2732C3.20742 19.7994 2.65467 19.1258 2.32827 18.3378C2.00187 17.5498 1.91647 16.6827 2.08287 15.8462C2.24926 15.0096 2.65999 14.2412 3.2631 13.6381C3.86622 13.035 4.63463 12.6243 5.47117 12.4579C6.30772 12.2915 7.17482 12.3769 7.96282 12.7033C8.75083 13.0297 9.42435 13.5824 9.89822 14.2916C10.3721 15.0008 10.625 15.8346 10.625 16.6875C10.6238 17.8309 10.169 18.927 9.36053 19.7355C8.55205 20.544 7.45587 20.9988 6.3125 21ZM6.3125 13.875C5.75624 13.875 5.21247 14.04 4.74996 14.349C4.28745 14.658 3.92696 15.0973 3.71409 15.6112C3.50122 16.1251 3.44552 16.6906 3.55404 17.2362C3.66256 17.7818 3.93043 18.2829 4.32376 18.6762C4.7171 19.0696 5.21824 19.3374 5.76381 19.446C6.30938 19.5545 6.87488 19.4988 7.3888 19.2859C7.90272 19.073 8.34197 18.7126 8.65101 18.25C8.96005 17.7875 9.125 17.2438 9.125 16.6875C9.12413 15.9418 8.82754 15.227 8.30028 14.6997C7.77302 14.1725 7.05816 13.8759 6.3125 13.875ZM15.5 6C15.6976 6.00069 15.8933 5.9622 16.0759 5.88677C16.2585 5.81134 16.4244 5.70045 16.5639 5.56053C16.7033 5.42061 16.8137 5.25442 16.8886 5.07159C16.9634 4.88875 17.0013 4.69288 17 4.49531C17.0022 4.29873 16.9652 4.10369 16.8911 3.92159C16.817 3.73949 16.7074 3.57399 16.5686 3.43476C16.4298 3.29553 16.2646 3.18537 16.0828 3.11072C15.9009 3.03607 15.706 2.99843 15.5094 3C15.3124 2.99939 15.1172 3.03757 14.935 3.11239C14.7528 3.1872 14.5871 3.29717 14.4473 3.43603C14.3076 3.57488 14.1966 3.73989 14.1207 3.92165C14.0447 4.1034 14.0053 4.29833 14.0047 4.49531C14.0041 4.6923 14.0423 4.88747 14.1171 5.0697C14.1919 5.25192 14.3019 5.41762 14.4407 5.55735C14.5796 5.69707 14.7446 5.80808 14.9263 5.88403C15.1081 5.95998 15.303 5.99939 15.5 6Z" fill="#050505"/>
<path d="M17.7289 9H15.6777C15.644 9.00001 15.611 8.99096 15.582 8.97381C15.5531 8.95665 15.5293 8.93202 15.5131 8.9025L14.0253 6.17578C13.9205 5.97315 13.7694 5.79804 13.5843 5.66464C13.3993 5.53124 13.1854 5.4433 12.96 5.40792C12.7346 5.37255 12.504 5.39074 12.287 5.46103C12.0699 5.53132 11.8725 5.65172 11.7106 5.8125L8.43594 9.1125C8.16083 9.3933 8.00467 9.76942 8 10.1625C8 10.9781 8.59062 11.2688 8.86719 11.4328C10.2031 12.2025 11.1439 12.7655 11.66 13.0781C11.6874 13.0948 11.7101 13.1183 11.7259 13.1463C11.7416 13.1743 11.7499 13.2058 11.75 13.238V16.478C11.75 16.8816 12.0603 17.228 12.4639 17.2481C12.5652 17.253 12.6665 17.2373 12.7616 17.2019C12.8567 17.1665 12.9436 17.1122 13.017 17.0423C13.0905 16.9723 13.1491 16.8882 13.1891 16.795C13.2291 16.7018 13.2499 16.6014 13.25 16.5V12.4688C13.2501 12.3497 13.2218 12.2323 13.1675 12.1264C13.1132 12.0204 13.0345 11.9289 12.9378 11.8594L11.2034 10.612C11.1817 10.5965 11.1635 10.5764 11.1501 10.5532C11.1367 10.53 11.1285 10.5042 11.1259 10.4776C11.1233 10.4509 11.1265 10.4241 11.1352 10.3987C11.1439 10.3734 11.1579 10.3502 11.1762 10.3308L13.145 8.23125C13.1652 8.20965 13.1902 8.19313 13.218 8.18304C13.2458 8.17294 13.2755 8.16956 13.3049 8.17318C13.3342 8.17679 13.3623 8.18728 13.3868 8.20381C13.4113 8.22034 13.4316 8.24243 13.4459 8.26828L14.4688 10.1142C14.5338 10.2312 14.6289 10.3287 14.7443 10.3966C14.8597 10.4644 14.9911 10.5001 15.125 10.5H17.75C17.8516 10.5001 17.9522 10.4796 18.0456 10.4397C18.139 10.3997 18.2234 10.3412 18.2935 10.2677C18.3636 10.1942 18.4181 10.1072 18.4536 10.012C18.4891 9.91682 18.5049 9.81539 18.5 9.71391C18.4803 9.31031 18.1325 9 17.7289 9Z" fill="#050505"/>
</svg>
