<svg width="31" height="31" viewBox="0 0 31 31" fill="none" xmlns="http://www.w3.org/2000/svg">
<g clip-path="url(#clip0_4_45)">
<path d="M15.5 26.125C14.625 26.125 13.8854 25.8229 13.2812 25.2188C12.6771 24.6146 12.375 23.875 12.375 23C12.375 22.125 12.6771 21.3854 13.2812 20.7812C13.8854 20.1771 14.625 19.875 15.5 19.875C16.375 19.875 17.1146 20.1771 17.7188 20.7812C18.3229 21.3854 18.625 22.125 18.625 23C18.625 23.875 18.3229 24.6146 17.7188 25.2188C17.1146 25.8229 16.375 26.125 15.5 26.125ZM8.4375 19.0625L5.8125 16.375C7.04167 15.1458 8.48458 14.1721 10.1412 13.4537C11.7979 12.7354 13.5842 12.3758 15.5 12.375C17.4158 12.3742 19.2025 12.7387 20.86 13.4688C22.5175 14.1987 23.96 15.1883 25.1875 16.4375L22.5625 19.0625C21.6458 18.1458 20.5833 17.4271 19.375 16.9062C18.1667 16.3854 16.875 16.125 15.5 16.125C14.125 16.125 12.8333 16.3854 11.625 16.9062C10.4167 17.4271 9.35417 18.1458 8.4375 19.0625ZM3.125 13.75L0.5 11.125C2.41667 9.16667 4.65625 7.63542 7.21875 6.53125C9.78125 5.42708 12.5417 4.875 15.5 4.875C18.4583 4.875 21.2188 5.42708 23.7812 6.53125C26.3438 7.63542 28.5833 9.16667 30.5 11.125L27.875 13.75C26.2708 12.1458 24.4117 10.8908 22.2975 9.985C20.1833 9.07917 17.9175 8.62583 15.5 8.625C13.0825 8.62417 10.8171 9.0775 8.70375 9.985C6.59042 10.8925 4.73083 12.1475 3.125 13.75Z" fill="white"/>
</g>
<defs>
<clipPath id="clip0_4_45">
<rect width="30" height="29.25" fill="white" transform="translate(0.5 0.875)"/>
</clipPath>
</defs>
</svg>
