<svg width="25" height="24" viewBox="0 0 25 24" fill="none" xmlns="http://www.w3.org/2000/svg">
<path d="M14 5.5C15.09 5.5 16 4.58 16 3.5C16 2.96957 15.7893 2.46086 15.4142 2.08579C15.0391 1.71071 14.5304 1.5 14 1.5C12.89 1.5 12 2.38 12 3.5C12 4.58 12.89 5.5 14 5.5ZM10.39 19.38L11.39 15L13.5 17V23H15.5V15.5L13.39 13.5L14 10.5C14.6852 11.2851 15.5306 11.9145 16.4792 12.3457C17.4279 12.7769 18.4579 13 19.5 13V11C17.59 11 16 10 15.19 8.58L14.19 7C13.79 6.38 13.19 6 12.5 6C12.19 6 12 6.08 11.69 6.08L6.5 8.28V13H8.5V9.58L10.29 8.88L8.69 17L3.79 16L3.39 18L10.39 19.38Z" fill="#050505"/>
</svg>
