<svg width="17" height="18" viewBox="0 0 17 18" fill="none" xmlns="http://www.w3.org/2000/svg">
<path d="M8.71795 16.2C8.47094 16.2 8.26403 16.1136 8.09723 15.9408C7.93043 15.768 7.84673 15.5544 7.84615 15.3V11.7C7.84615 11.445 7.92985 11.2314 8.09723 11.0592C8.26462 10.887 8.47152 10.8006 8.71795 10.8H10.8974C11.1444 10.8 11.3516 10.8864 11.519 11.0592C11.6864 11.232 11.7698 11.4456 11.7692 11.7V15.3C11.7692 15.555 11.6855 15.7689 11.5182 15.9417C11.3508 16.1145 11.1439 16.2006 10.8974 16.2H8.71795ZM9.15384 14.85H10.4615V12.15H9.15384V14.85ZM13.0769 18V15.525C13.0769 15.27 13.1606 15.0564 13.328 14.8842C13.4954 14.712 13.7023 14.6256 13.9487 14.625H15.6923V13.95H13.0769V12.6H16.1282C16.3752 12.6 16.5824 12.6864 16.7498 12.8592C16.9172 13.032 17.0006 13.2456 17 13.5V15.075C17 15.33 16.9163 15.5439 16.7489 15.7167C16.5815 15.8895 16.3746 15.9756 16.1282 15.975H14.3846V16.65H17V18H13.0769ZM6.10256 17.955C4.31538 17.745 2.85135 16.9539 1.71046 15.5817C0.569573 14.2095 -0.000580753 12.5556 4.43887e-07 10.62C4.43887e-07 9.12 0.57771 7.4889 1.73313 5.7267C2.88855 3.9645 4.63562 2.0556 6.97436 0C8.89231 1.68 10.4145 3.27 11.5408 4.77C12.6672 6.27 13.3972 7.68 13.7308 9H7.84615C7.36667 9 6.95634 9.1764 6.61518 9.5292C6.27402 9.882 6.10314 10.3056 6.10256 10.8V17.955Z" fill="#FF0000"/>
</svg>
